<?xml version="1.0" encoding="utf-8"?>
<!-- Generator: Adobe Illustrator 22.1.0, SVG Export Plug-In . SVG Version: 6.00 Build 0)  -->
<svg version="1.1" id="Layer_1" xmlns="http://www.w3.org/2000/svg" xmlns:xlink="http://www.w3.org/1999/xlink" x="0px" y="0px"
	 viewBox="0 0 140 32" style="enable-background:new 0 0 140 32;" xml:space="preserve">
<style type="text/css">
	.st0{fill:#FFFFFF;}
	.st1{fill:#FFFFFF;stroke:#FFFFFF;stroke-width:2;stroke-miterlimit:10;}
	.st2{fill:#FFFFFF;stroke:#FFFFFF;stroke-miterlimit:10;}
</style>
<g>
	<g>
		<path class="st0" d="M9.6-43.1c-0.6,0.5-1,1.2-1,2.1c0,0.9,0.4,1.6,1.2,2.1c0.8,0.5,2.6,1.1,5.5,1.8c2.9,0.7,5.1,1.8,6.7,3.2
			c1.6,1.4,2.4,3.5,2.4,6.2c0,2.7-1,4.9-3,6.6c-2,1.7-4.7,2.5-8,2.5c-4.8,0-9.1-1.8-12.9-5.3l4-4.9c3.3,2.9,6.3,4.3,9,4.3
			c1.2,0,2.2-0.3,2.9-0.8c0.7-0.5,1.1-1.3,1.1-2.2s-0.4-1.6-1.1-2.2c-0.7-0.5-2.2-1.1-4.4-1.6c-3.5-0.8-6.1-1.9-7.7-3.3
			c-1.6-1.3-2.4-3.4-2.4-6.3c0-2.9,1-5.1,3.1-6.6c2.1-1.6,4.6-2.3,7.7-2.3c2,0,4,0.3,6,1c2,0.7,3.8,1.7,5.3,2.9l-3.4,4.9
			c-2.6-2-5.3-3-8.1-3C11.1-43.9,10.2-43.6,9.6-43.1z"/>
		<path class="st0" d="M51.2-49.1h6.7V-19h-6.7L36.8-37.9V-19h-6.7v-30.2h6.3l14.8,19.4C51.2-29.7,51.2-49.1,51.2-49.1z"/>
	</g>
	<g>
		<g>
			<path class="st0" d="M104-31.8l5.4-17.4h7l5.3,17.4l6-17.4h7.3L124.5-19h-5l-6.6-21l-6.6,21h-5L90.8-49.1h7.3L104-31.8z"/>
		</g>
		<g>
			<path class="st1" d="M82.3-32.4c-1.7,1.7-3.9,2.5-6.4,2.5c-2.5,0-4.7-0.9-6.4-2.5c-1.7-1.7-2.6-3.8-2.6-6.3s0.9-4.6,2.6-6.3
				c1.7-1.7,3.9-2.5,6.4-2.5c2.5,0,4.7,0.8,6.4,2.5c1.7,1.7,2.6,3.8,2.6,6.3S84-34.1,82.3-32.4z M81-38.7c0-1.5-0.5-2.8-1.5-3.9
				s-2.2-1.6-3.6-1.6c-1.4,0-2.6,0.5-3.6,1.6c-1,1.1-1.5,2.4-1.5,3.9s0.5,2.8,1.5,3.9c1,1.1,2.2,1.6,3.6,1.6c1.4,0,2.6-0.5,3.6-1.6
				C80.5-35.9,81-37.2,81-38.7z"/>
		</g>
		<g>
			<path class="st2" d="M85.1-22v1.5H67.8V-22H85.1z"/>
		</g>
	</g>
</g>
<g>
	<path class="st0" d="M5.4,12h5.1v1.5H7v1.4h3.3v1.5H7V18h3.6v1.5H5.4V12z"/>
	<path class="st0" d="M12.8,12h1.9l1.9,4.9h0l1.9-4.9h1.8l-3.1,7.5h-1.3L12.8,12z"/>
	<path class="st0" d="M22.7,12h5.1v1.5h-3.5v1.4h3.3v1.5h-3.3V18h3.7v1.5h-5.3V12z"/>
	<path class="st0" d="M31,12h2.3l3.2,5.2h0V12h1.7v7.5h-2.2l-3.3-5.4h0v5.4H31V12z"/>
	<path class="st0" d="M42.7,13.5h-2.1V12h6v1.5h-2.1v6.1h-1.7V13.5z"/>
	<path class="st0" d="M50.8,16.3L48,12H50l1.6,2.8l1.7-2.8h2l-2.8,4.3v3.2h-1.7V16.3z"/>
</g>
</svg>
